<svg width="166" height="48" viewBox="0 0 166 48" fill="none" xmlns="http://www.w3.org/2000/svg">
<g clip-path="url(#clip0_9203_62910)">
<path d="M10.9591 33.6357C9.96397 32.6143 9.18785 31.4338 8.63074 30.094C8.07385 28.7544 7.79541 27.3844 7.79541 25.984C7.79541 24.346 8.08408 22.8428 8.66141 21.4743C9.23874 20.1059 10.0994 18.8497 11.2434 17.7057C12.6743 16.2801 14.7141 15.2547 17.3627 14.6293C20.0116 14.004 23.2616 13.7362 27.1127 13.826C27.6103 13.8482 28.0635 13.9491 28.4724 14.1287C28.8811 14.308 29.2511 14.5581 29.5824 14.879C29.9069 15.2041 30.1641 15.5712 30.3541 15.9803C30.5439 16.3894 30.6487 16.8456 30.6687 17.3487C30.7301 19.2742 30.7052 21.0528 30.5941 22.6843C30.483 24.3161 30.2663 25.8013 29.9441 27.14C29.6219 28.4784 29.2006 29.6696 28.6804 30.7133C28.1602 31.7569 27.5324 32.6473 26.7971 33.3847C25.664 34.5231 24.4302 35.3867 23.0957 35.9753C21.7613 36.5638 20.3374 36.858 18.8241 36.858C17.2605 36.858 15.8293 36.5982 14.5304 36.0787C13.2313 35.5591 12.0409 34.7448 10.9591 33.6357ZM14.5681 33.4283C15.1272 33.8061 15.7725 34.0923 16.5041 34.287C17.2356 34.4817 18.0075 34.579 18.8197 34.579C19.9877 34.579 21.1216 34.3359 22.2214 33.8497C23.321 33.3634 24.3184 32.6617 25.2137 31.7443C25.8509 31.1017 26.3819 30.2678 26.8067 29.2427C27.2316 28.2176 27.5694 27.0347 27.8201 25.694C28.0707 24.3531 28.2326 22.8746 28.3057 21.2583C28.3786 19.6421 28.3733 17.9243 28.2897 16.105C26.2169 16.0552 24.3579 16.0817 22.7127 16.1843C21.0679 16.287 19.6161 16.4717 18.3574 16.7383C17.0987 17.005 16.0192 17.3452 15.1187 17.759C14.2183 18.1728 13.4871 18.6717 12.9251 19.2557C12.0077 20.1901 11.302 21.1889 10.8077 22.252C10.3135 23.3151 10.0664 24.3922 10.0664 25.4833C10.0664 26.5271 10.2875 27.6276 10.7297 28.7847C11.1722 29.9418 11.7275 30.8732 12.3957 31.579C13.54 29.433 14.9263 27.504 16.5547 25.792C18.1834 24.08 19.9412 22.7107 21.8281 21.684C19.9161 23.356 18.3627 25.1616 17.1681 27.1007C15.9732 29.0398 15.1065 31.149 14.5681 33.4283Z" fill="#1B391B"/>
<path d="M43.017 21V4.25232H57.444V21H55.0993V5.71176L55.6735 6.33382H44.7875L45.3856 5.71176V21H43.017ZM68.7675 21.1436C67.7148 21.1436 66.7498 20.9043 65.8726 20.4258C65.0113 19.9313 64.3174 19.2056 63.7911 18.2486C63.2807 17.2916 63.0255 16.0953 63.0255 14.6598C63.0255 13.2243 63.2727 12.028 63.7671 11.071C64.2775 10.114 64.9634 9.39625 65.8247 8.91775C66.702 8.43924 67.6829 8.19999 68.7675 8.19999C70.0116 8.19999 71.1122 8.47114 72.0692 9.01345C73.0262 9.55575 73.7839 10.3134 74.3421 11.2863C74.9004 12.2434 75.1795 13.3678 75.1795 14.6598C75.1795 15.9518 74.9004 17.0842 74.3421 18.0572C73.7839 19.0302 73.0262 19.7878 72.0692 20.3301C71.1122 20.8724 70.0116 21.1436 68.7675 21.1436ZM62.0445 25.6415V8.31961H64.2456V11.7409L64.1021 14.6837L64.3414 17.6265V25.6415H62.0445ZM68.5761 19.1338C69.3896 19.1338 70.1153 18.9504 70.7533 18.5835C71.4073 18.2167 71.9177 17.6983 72.2845 17.0284C72.6673 16.3426 72.8587 15.553 72.8587 14.6598C72.8587 13.7506 72.6673 12.9691 72.2845 12.3151C71.9177 11.6452 71.4073 11.1268 70.7533 10.76C70.1153 10.3931 69.3896 10.2097 68.5761 10.2097C67.7786 10.2097 67.0529 10.3931 66.3989 10.76C65.7609 11.1268 65.2505 11.6452 64.8677 12.3151C64.5009 12.9691 64.3174 13.7506 64.3174 14.6598C64.3174 15.553 64.5009 16.3426 64.8677 17.0284C65.2505 17.6983 65.7609 18.2167 66.3989 18.5835C67.0529 18.9504 67.7786 19.1338 68.5761 19.1338ZM78.2772 21V8.31961H80.5741V17.5548L88.3498 8.31961H90.4313V21H88.1345V11.7649L80.3827 21H78.2772ZM101.373 21.1436C100.32 21.1436 99.3555 20.9043 98.4782 20.4258C97.6169 19.9313 96.9231 19.2056 96.3967 18.2486C95.8863 17.2916 95.6311 16.0953 95.6311 14.6598C95.6311 13.2243 95.8783 12.028 96.3728 11.071C96.8832 10.114 97.569 9.39625 98.4304 8.91775C99.3076 8.43924 100.289 8.19999 101.373 8.19999C102.617 8.19999 103.718 8.47114 104.675 9.01345C105.632 9.55575 106.389 10.3134 106.948 11.2863C107.506 12.2434 107.785 13.3678 107.785 14.6598C107.785 15.9518 107.506 17.0842 106.948 18.0572C106.389 19.0302 105.632 19.7878 104.675 20.3301C103.718 20.8724 102.617 21.1436 101.373 21.1436ZM94.6502 25.6415V8.31961H96.8513V11.7409L96.7077 14.6837L96.947 17.6265V25.6415H94.6502ZM101.182 19.1338C101.995 19.1338 102.721 18.9504 103.359 18.5835C104.013 18.2167 104.523 17.6983 104.89 17.0284C105.273 16.3426 105.464 15.553 105.464 14.6598C105.464 13.7506 105.273 12.9691 104.89 12.3151C104.523 11.6452 104.013 11.1268 103.359 10.76C102.721 10.3931 101.995 10.2097 101.182 10.2097C100.384 10.2097 99.6585 10.3931 99.0046 10.76C98.3666 11.1268 97.8561 11.6452 97.4733 12.3151C97.1065 12.9691 96.9231 13.7506 96.9231 14.6598C96.9231 15.553 97.1065 16.3426 97.4733 17.0284C97.8561 17.6983 98.3666 18.2167 99.0046 18.5835C99.6585 18.9504 100.384 19.1338 101.182 19.1338ZM116.314 21.1436C115.038 21.1436 113.905 20.8644 112.917 20.3062C111.928 19.7479 111.146 18.9823 110.572 18.0093C109.998 17.0204 109.711 15.9039 109.711 14.6598C109.711 13.3997 109.998 12.2832 110.572 11.3103C111.146 10.3373 111.928 9.57968 112.917 9.03737C113.905 8.47912 115.038 8.19999 116.314 8.19999C117.574 8.19999 118.698 8.47912 119.687 9.03737C120.692 9.57968 121.474 10.3373 122.032 11.3103C122.606 12.2673 122.893 13.3838 122.893 14.6598C122.893 15.9199 122.606 17.0364 122.032 18.0093C121.474 18.9823 120.692 19.7479 119.687 20.3062C118.698 20.8644 117.574 21.1436 116.314 21.1436ZM116.314 19.1338C117.127 19.1338 117.853 18.9504 118.491 18.5835C119.145 18.2167 119.655 17.6983 120.022 17.0284C120.389 16.3426 120.573 15.553 120.573 14.6598C120.573 13.7506 120.389 12.9691 120.022 12.3151C119.655 11.6452 119.145 11.1268 118.491 10.76C117.853 10.3931 117.127 10.2097 116.314 10.2097C115.5 10.2097 114.775 10.3931 114.137 10.76C113.499 11.1268 112.988 11.6452 112.606 12.3151C112.223 12.9691 112.031 13.7506 112.031 14.6598C112.031 15.553 112.223 16.3426 112.606 17.0284C112.988 17.6983 113.499 18.2167 114.137 18.5835C114.775 18.9504 115.5 19.1338 116.314 19.1338ZM126.619 19.397L124.346 18.9903C124.841 19.0062 125.239 18.8467 125.542 18.5118C125.845 18.1609 126.077 17.6824 126.236 17.0763C126.412 16.4702 126.539 15.7843 126.619 15.0187C126.699 14.2371 126.763 13.4316 126.81 12.6022L127.002 8.31961H136.835V19.9234H134.538V10.3293H129.035L128.916 12.7697C128.884 13.5672 128.828 14.3408 128.748 15.0905C128.685 15.8242 128.573 16.5021 128.413 17.1241C128.27 17.7462 128.054 18.2566 127.767 18.6553C127.48 19.0541 127.097 19.3013 126.619 19.397ZM123.844 23.9428V18.9903H138.773V23.9428H136.62V21H126.021V23.9428H123.844ZM141.526 21V8.31961H143.823V13.7028H151.048V8.31961H153.345V21H151.048V15.6886H143.823V21H141.526ZM157.572 21V8.31961H159.869V21H157.572ZM158.72 5.87924C158.274 5.87924 157.899 5.73569 157.596 5.44858C157.309 5.16148 157.165 4.81058 157.165 4.39587C157.165 3.96522 157.309 3.60634 157.596 3.31924C157.899 3.03213 158.274 2.88858 158.72 2.88858C159.167 2.88858 159.534 3.03213 159.821 3.31924C160.124 3.59039 160.275 3.93332 160.275 4.34802C160.275 4.77868 160.132 5.14553 159.845 5.44858C159.558 5.73569 159.183 5.87924 158.72 5.87924ZM43.017 45V28.2523H44.9789L52.4914 40.9088H51.4387L58.8556 28.2523H60.8174L60.8413 45H58.5445L58.5206 31.865H59.0709L52.4675 42.9664H51.3669L44.7157 31.865H45.3139V45H43.017ZM73.2081 45V42.3204L73.0885 41.8179V37.2482C73.0885 36.2753 72.8014 35.5256 72.2272 34.9992C71.6689 34.4569 70.8235 34.1858 69.6911 34.1858C68.9414 34.1858 68.2077 34.3134 67.49 34.5686C66.7722 34.8078 66.1661 35.1348 65.6716 35.5495L64.7146 33.8269C65.3686 33.3006 66.1501 32.9018 67.0593 32.6306C67.9844 32.3435 68.9494 32.2 69.9543 32.2C71.6928 32.2 73.0326 32.6227 73.9737 33.468C74.9148 34.3134 75.3853 35.6053 75.3853 37.3439V45H73.2081ZM69.0451 45.1436C68.104 45.1436 67.2746 44.984 66.5569 44.665C65.8551 44.346 65.3128 43.9074 64.9299 43.3492C64.5471 42.775 64.3557 42.129 64.3557 41.4112C64.3557 40.7254 64.5152 40.1033 64.8342 39.545C65.1692 38.9868 65.7035 38.5402 66.4372 38.2052C67.1869 37.8703 68.1918 37.7028 69.4518 37.7028H73.4713V39.3536H69.5475C68.3991 39.3536 67.6255 39.545 67.2268 39.9278C66.828 40.3106 66.6286 40.7732 66.6286 41.3155C66.6286 41.9376 66.8759 42.44 67.3703 42.8228C67.8648 43.1897 68.5506 43.3731 69.4279 43.3731C70.2892 43.3731 71.0389 43.1817 71.6769 42.7989C72.3308 42.4161 72.8014 41.8578 73.0885 41.1241L73.543 42.7032C73.24 43.4528 72.7057 44.051 71.94 44.4976C71.1744 44.9282 70.2095 45.1436 69.0451 45.1436ZM79.2819 45V32.3196H81.5788V37.7028H88.8042V32.3196H91.101V45H88.8042V39.6886H81.5788V45H79.2819ZM96.0694 43.397L93.7965 42.9903C94.291 43.0062 94.6897 42.8467 94.9928 42.5118C95.2958 42.1609 95.5271 41.6824 95.6866 41.0763C95.8621 40.4702 95.9897 39.7843 96.0694 39.0187C96.1492 38.2371 96.213 37.4316 96.2608 36.6022L96.4522 32.3196H106.285V43.9234H103.989V34.3293H98.4859L98.3662 36.7697C98.3343 37.5672 98.2785 38.3408 98.1988 39.0905C98.135 39.8242 98.0233 40.5021 97.8638 41.1241C97.7203 41.7462 97.5049 42.2566 97.2178 42.6553C96.9307 43.0541 96.5479 43.3013 96.0694 43.397ZM93.2941 47.9428V42.9903H108.223V47.9428H106.07V45H95.4713V47.9428H93.2941ZM117.699 45.1436C116.647 45.1436 115.682 44.9043 114.804 44.4258C113.943 43.9313 113.249 43.2056 112.723 42.2486C112.212 41.2916 111.957 40.0953 111.957 38.6598C111.957 37.2243 112.205 36.028 112.699 35.071C113.209 34.114 113.895 33.3963 114.757 32.9177C115.634 32.4392 116.615 32.2 117.699 32.2C118.943 32.2 120.044 32.4711 121.001 33.0134C121.958 33.5558 122.716 34.3134 123.274 35.2863C123.832 36.2434 124.111 37.3678 124.111 38.6598C124.111 39.9518 123.832 41.0842 123.274 42.0572C122.716 43.0302 121.958 43.7878 121.001 44.3301C120.044 44.8724 118.943 45.1436 117.699 45.1436ZM110.976 49.6415V32.3196H113.177V35.7409L113.034 38.6837L113.273 41.6265V49.6415H110.976ZM117.508 43.1338C118.321 43.1338 119.047 42.9504 119.685 42.5835C120.339 42.2167 120.85 41.6983 121.216 41.0284C121.599 40.3426 121.791 39.553 121.791 38.6598C121.791 37.7506 121.599 36.9691 121.216 36.3151C120.85 35.6452 120.339 35.1268 119.685 34.76C119.047 34.3931 118.321 34.2097 117.508 34.2097C116.71 34.2097 115.985 34.3931 115.331 34.76C114.693 35.1268 114.182 35.6452 113.8 36.3151C113.433 36.9691 113.249 37.7506 113.249 38.6598C113.249 39.553 113.433 40.3426 113.8 41.0284C114.182 41.6983 114.693 42.2167 115.331 42.5835C115.985 42.9504 116.71 43.1338 117.508 43.1338ZM127.209 45V32.3196H129.506V41.5548L137.282 32.3196H139.363V45H137.066V35.7649L129.314 45H127.209Z" fill="#1B391B"/>
</g>
<defs>
<clipPath id="clip0_9203_62910">
<rect width="165.333" height="48" fill="white"/>
</clipPath>
</defs>
</svg>
